# xmcd
#
# Track frame offsets: 
#        150
#        11779
#        25879
#        39558
#        49802
#        61564
#        73810
#        87371
#        98692
#        110791
#
# Disc length: 1604 seconds
#
# Revision: 2
# Processed by: cddbd v1.5.1PL2 Copyright (c) Steve Scherf et al.
# Submitted via: ExactAudioCopy v0.95b4
#
DISCID=8106420a
DTITLE=Jean Shepard - Jean Shepard: Dear John
DYEAR=1900
DGENRE=
TTITLE0=Too Many Rivers
TTITLE1=What Would I Do
TTITLE2=The Palm of Your Hand
TTITLE3=Leavin' Fever
TTITLE4=All Alone in Austin
TTITLE5=Slippin' Away
TTITLE6=Then He Touched Me
TTITLE7=Seven Lonely Days
TTITLE8=A Dear John Letter
TTITLE9=Second Fiddle to an Old Guitar
EXTD=
EXTT0=Jean Shepard
EXTT1=Jean Shepard
EXTT2=Jean Shepard
EXTT3=Jean Shepard
EXTT4=Jean Shepard
EXTT5=Jean Shepard
EXTT6=Jean Shepard
EXTT7=Jean Shepard
EXTT8=Jean Shepard
EXTT9=Jean Shepard
PLAYORDER=
